<svg width="100%" height="100%" viewBox="0 0 12 12" version="1.1" xmlns="http://www.w3.org/2000/svg" xmlns:xlink="http://www.w3.org/1999/xlink" xml:space="preserve" xmlns:serif="http://www.serif.com/" style="fill-rule:evenodd;clip-rule:evenodd;stroke-linejoin:round;stroke-miterlimit:2;">
    <g transform="matrix(1,0,0,1,-186,0)">
        <path d="M192.555,11.7C193.758,10.195 196.5,6.548 196.5,4.5C196.5,2.016 194.484,0 192,0C189.516,0 187.5,2.016 187.5,4.5C187.5,6.548 190.242,10.195 191.445,11.7C191.733,12.059 192.267,12.059 192.555,11.7ZM192,3C192.823,3 193.5,3.677 193.5,4.5C193.5,5.323 192.823,6 192,6C191.177,6 190.5,5.323 190.5,4.5C190.5,3.677 191.177,3 192,3Z" style="fill:rgb(200,204,207);fill-rule:nonzero;"/>
    </g>
</svg>
