<svg width="100%" height="100%" viewBox="0 0 12 12" version="1.1" xmlns="http://www.w3.org/2000/svg" xmlns:xlink="http://www.w3.org/1999/xlink" xml:space="preserve" xmlns:serif="http://www.serif.com/" style="fill-rule:evenodd;clip-rule:evenodd;stroke-linejoin:round;stroke-miterlimit:2;">
    <g transform="matrix(1,0,0,1,-250,0)">
        <path d="M253.865,0.577C253.684,0.141 253.209,-0.091 252.754,0.033L250.691,0.595C250.284,0.708 250,1.078 250,1.5C250,7.298 254.702,12 260.5,12C260.922,12 261.292,11.716 261.405,11.309L261.967,9.246C262.091,8.791 261.859,8.316 261.423,8.135L259.173,7.198C258.791,7.038 258.348,7.148 258.088,7.47L257.141,8.625C255.491,7.845 254.155,6.509 253.375,4.859L254.53,3.914C254.852,3.652 254.962,3.211 254.802,2.829L253.865,0.579L253.865,0.577Z" style="fill:rgb(200,204,207);fill-rule:nonzero;"/>
    </g>
</svg>
