<?xml version="1.0" encoding="utf-8"?>
<!-- Generator: Adobe Illustrator 28.0.0, SVG Export Plug-In . SVG Version: 6.00 Build 0)  -->
<svg version="1.1" id="Layer_1" xmlns="http://www.w3.org/2000/svg" xmlns:xlink="http://www.w3.org/1999/xlink" x="0px" y="0px"
	 width="46.6px" height="80px" viewBox="0 0 46.6 80" style="enable-background:new 0 0 46.6 80;" xml:space="preserve">
<style type="text/css">
	.st0{fill:#558996;}
</style>
<path class="st0" d="M27.1,61.4h-7.7v-7.7h7.7C27.1,53.7,27.1,61.4,27.1,61.4z M34.4,36l8.3-6.8c2.6-2.2,3-6,0.9-8.7
	c-2.2-2.6-6-3-8.7-0.9l-11.2,9.2L31.1,14c1.5-3,0.3-6.7-2.8-8.2c-3-1.5-6.7-0.3-8.2,2.8l-7.8,15.6v-18C12.3,2.8,9.5,0,6.2,0
	C2.8,0,0,2.8,0,6.2v50.7C0.1,69.7,10.5,80,23.3,80c6.3,0,12-2.5,16.2-6.5c1.7-2.2,1.8-5.5-0.1-7.7c-0.2-0.2-0.3-0.4-0.5-0.5
	l-0.1-0.1c-0.1-0.1-0.3-0.2-0.4-0.3c-0.1,0-0.1-0.1-0.2-0.1c-0.1-0.1-0.3-0.2-0.4-0.3c-0.1,0-0.1-0.1-0.2-0.1
	c-0.2-0.1-0.3-0.2-0.5-0.3H37c-0.9-0.4-1.8-0.5-2.8-0.5c-1.3,0.1-2.5,0.5-3.6,1.4v-0.1c-2,1.7-4.5,2.8-7.4,2.8h-11V47.4l11-9
	l4.1,3.3l3.6-2.9v5.8l3.3,2.7v6.9c0.1,0.4,0.1,0.7,0.2,1.1c0.3,3.4,3.4,5.8,6.7,5.5c2.9-0.3,5.2-2.6,5.5-5.4
	C46.3,47.1,41.4,39.8,34.4,36z"/>
</svg>
