<svg version="1.1" id="Layer_1" xmlns="http://www.w3.org/2000/svg" x="0" y="0" width="200" height="80" style="enable-background:new 0 0 200 80" xml:space="preserve"><style>.st0{fill:#35383c}.st1{fill:#558996}</style><path class="st0" d="M58.4 35.1c4 0 6 2.4 6 6.6v.8h-3.9v-1.1c0-1.9-.7-2.6-2-2.6s-2.1.7-2.1 2.6c0 1.9.8 3.3 3.5 5.7 3.4 3 4.5 5.2 4.5 8.2 0 4.2-2.1 6.6-6.1 6.6-4 0-6.1-2.4-6.1-6.6v-1.6h3.9v1.9c0 1.9.8 2.5 2.1 2.5s2.1-.7 2.1-2.5c0-1.9-.8-3.3-3.5-5.7-3.4-3-4.5-5.2-4.5-8.2 0-4.2 2.1-6.6 6.1-6.6M72.8 55.5c0 1.9.8 2.6 2.1 2.6s2.1-.7 2.1-2.6V41.4c0-1.9-.8-2.6-2.1-2.6s-2.1.7-2.1 2.6v14.1zm-4.1-13.9c0-4.2 2.2-6.6 6.2-6.6s6.2 2.4 6.2 6.6v13.6c0 1.5-.3 2.7-.8 3.7.2.5.5.6 1.2.6h.4v3.7h-.6c-1.8 0-3-.7-3.5-1.8-.8.3-1.8.5-2.9.5-4 0-6.2-2.4-6.2-6.6V41.6zM90 35.4v20.1c0 1.9.8 2.5 2.1 2.5s2.1-.7 2.1-2.5V35.4h3.9v19.9c0 4.2-2.1 6.6-6.1 6.6-4 0-6.1-2.4-6.1-6.6V35.4H90zM107 53.2h4L109 40l-2 13.2zm9.4 8.3h-4.1l-.7-4.7h-5l-.7 4.7H102l4.2-26.1h6l4.2 26.1zM124.6 39.1v8h1.6c1.5 0 2.5-.7 2.5-2.8v-2.6c0-1.9-.6-2.7-2.1-2.7h-2zm4.5 22.4c-.2-.7-.4-1.1-.4-3.2v-4.1c0-2.4-.8-3.3-2.7-3.3h-1.4v10.6h-4.1V35.4h6.2c4.3 0 6.1 2 6.1 6v2.1c0 2.7-.9 4.4-2.7 5.3v.1c2.1.9 2.7 2.8 2.7 5.5v4c0 1.3 0 2.2.4 3.2h-4.1zM141.8 46.4h5.7v3.7h-5.7v7.6h7.1v3.8h-11.2V35.4h11.2v3.7h-7.1z"/><path class="st1" d="M157.5 55.5c0 1.9.8 2.6 2.1 2.6s2.1-.7 2.1-2.6V41.4c0-1.9-.8-2.6-2.1-2.6s-2.1.7-2.1 2.6v14.1zm-4.1-13.9c0-4.2 2.2-6.6 6.2-6.6s6.2 2.4 6.2 6.6v13.6c0 4.2-2.2 6.6-6.2 6.6s-6.2-2.4-6.2-6.6V41.6zM174.4 42.6h-.1v18.9h-3.6V35.4h5.1l4.1 15.6h.1V35.4h3.7v26.1h-4.2zM188.8 35.4v26.1H200v-3.8h-7.1v-7.6h5.7v-3.7h-5.7v-7.3h7.1v-3.7zM27.1 61.4h-7.7v-7.7h7.7v7.7zM34.4 36l8.3-6.8c2.6-2.2 3-6 .9-8.7-2.2-2.6-6-3-8.7-.9l-11.2 9.2L31.1 14c1.5-3 .3-6.7-2.8-8.2-3-1.5-6.7-.3-8.2 2.8l-7.8 15.6v-18C12.3 2.8 9.5 0 6.2 0 2.8 0 0 2.8 0 6.2v50.7C.1 69.7 10.5 80 23.3 80c6.3 0 12-2.5 16.2-6.5 1.7-2.2 1.8-5.5-.1-7.7-.2-.2-.3-.4-.5-.5l-.1-.1c-.1-.1-.3-.2-.4-.3-.1 0-.1-.1-.2-.1-.1-.1-.3-.2-.4-.3-.1 0-.1-.1-.2-.1-.2-.1-.3-.2-.5-.3H37c-.9-.4-1.8-.5-2.8-.5-1.3.1-2.5.5-3.6 1.4v-.1c-2 1.7-4.5 2.8-7.4 2.8h-11V47.4l11-9 4.1 3.3 3.6-2.9v5.8l3.3 2.7v6.9c.1.4.1.7.2 1.1.3 3.4 3.4 5.8 6.7 5.5 2.9-.3 5.2-2.6 5.5-5.4-.3-8.3-5.2-15.6-12.2-19.4z"/></svg>