<svg xmlns="http://www.w3.org/2000/svg" viewBox="0 0 58.36 100"><path d="M33.88 76.76H24.2v-9.68h9.68v9.68Zm9.13-31.75 10.35-8.45a7.685 7.685 0 0 0 1.08-10.82 7.685 7.685 0 0 0-10.82-1.08l-14 11.44 9.31-18.52c1.89-3.81.33-8.42-3.48-10.3a7.676 7.676 0 0 0-10.3 3.48l-9.78 19.45V7.69C15.38 3.44 11.94 0 7.69 0S0 3.44 0 7.69v63.38C.13 87.1 13.1 100 29.17 100c7.85 0 14.97-3.1 20.22-8.11 2.17-2.79 2.19-6.82-.17-9.64-.19-.23-.39-.44-.61-.64-.06-.06-.12-.1-.18-.16-.16-.14-.32-.28-.49-.4l-.21-.15c-.17-.12-.35-.23-.52-.34-.06-.04-.13-.07-.19-.11-.22-.12-.44-.23-.66-.32-.03-.01-.05-.03-.08-.04a7.662 7.662 0 0 0-3.44-.57c-1.58.1-3.15.67-4.45 1.77v-.09c-2.45 2.17-5.66 3.51-9.2 3.51H15.25V59.22h-.04l13.81-11.21 5.16 4.18 4.53-3.59v7.26l4.12 3.35h.03v8.68c.09.45.17.9.22 1.36l.02-.02a7.687 7.687 0 0 0 8.41 6.89c3.66-.37 6.46-3.25 6.87-6.77-.52-10.52-6.59-19.61-15.34-24.36Z" style="fill:#c2cddb;stroke-width:0"/></svg>